<svg width="128" height="38" viewBox="0 0 128 38" fill="none" xmlns="http://www.w3.org/2000/svg">
<g clip-path="url(#clip0_3723_843)">
<path d="M103.23 37.3395C102.643 37.0094 102.188 36.5578 101.868 35.9846C101.548 35.4113 101.389 34.779 101.389 34.0842C101.389 33.3894 101.548 32.7293 101.872 32.1526C102.195 31.5759 102.657 31.1243 103.258 30.7907C103.859 30.4607 104.547 30.2939 105.325 30.2939C105.881 30.2939 106.364 30.3669 106.774 30.5163C107.184 30.6657 107.545 30.8602 107.861 31.0999V31.9442C107.531 31.6697 107.163 31.4578 106.756 31.3049C106.35 31.1521 105.891 31.0756 105.377 31.0756C104.748 31.0756 104.196 31.2042 103.72 31.4612C103.244 31.7183 102.883 32.0762 102.632 32.5348C102.382 32.9933 102.261 33.5075 102.261 34.0703C102.261 34.6331 102.382 35.1438 102.625 35.5989C102.869 36.054 103.23 36.4119 103.706 36.6724C104.182 36.933 104.745 37.065 105.391 37.065C105.881 37.065 106.332 36.9851 106.753 36.8288C107.17 36.6724 107.548 36.457 107.889 36.1826V36.9782C107.524 37.2526 107.128 37.4611 106.697 37.6104C106.266 37.7598 105.79 37.8328 105.269 37.8328C104.498 37.8328 103.821 37.666 103.233 37.336" fill="#BB2026"/>
<path d="M110.349 37.5449C109.953 37.3434 109.644 37.062 109.425 36.7076C109.206 36.3532 109.095 35.9572 109.095 35.5264C109.095 35.0956 109.206 34.7065 109.432 34.3591C109.654 34.0117 109.97 33.7372 110.377 33.5392C110.783 33.3412 111.245 33.2404 111.766 33.2404C112.197 33.2404 112.59 33.3099 112.948 33.4454C113.302 33.5809 113.601 33.772 113.837 34.0117C114.073 34.2514 114.233 34.5328 114.316 34.8559L114.181 35.0678V33.3898C114.181 32.893 114.084 32.4692 113.889 32.1218C113.694 31.7744 113.42 31.5103 113.062 31.3331C112.708 31.156 112.291 31.0656 111.818 31.0656C111.315 31.0656 110.87 31.156 110.488 31.3331C110.106 31.5103 109.758 31.7674 109.446 32.0974V31.2289C109.769 30.9545 110.133 30.7321 110.547 30.5584C110.957 30.3847 111.429 30.2979 111.968 30.2979C112.59 30.2979 113.125 30.4125 113.576 30.6453C114.028 30.878 114.379 31.215 114.626 31.6632C114.876 32.1113 114.997 32.6498 114.997 33.2786V37.6526H114.177V35.7279L114.375 35.8773C114.285 36.2838 114.115 36.6346 113.865 36.9334C113.615 37.2322 113.305 37.458 112.934 37.6178C112.562 37.7742 112.152 37.8541 111.704 37.8541C111.2 37.8541 110.748 37.7533 110.349 37.5483M113.107 36.9369C113.437 36.784 113.698 36.5756 113.889 36.315C114.08 36.0545 114.174 35.7696 114.174 35.4639C114.174 35.1581 114.084 34.8837 113.906 34.644C113.729 34.4043 113.479 34.2167 113.156 34.0777C112.833 33.9422 112.468 33.8727 112.062 33.8727C111.408 33.8727 110.891 34.0256 110.509 34.3278C110.127 34.6301 109.939 35.0227 109.939 35.5021C109.939 35.8252 110.022 36.1135 110.193 36.3671C110.363 36.6208 110.602 36.8153 110.912 36.9577C111.221 37.1002 111.586 37.1697 111.999 37.1697C112.413 37.1697 112.774 37.0932 113.104 36.9404" fill="#BB2026"/>
<path d="M116.247 30.5689H117.067V37.6491H116.247V30.5689ZM117.178 31.9133C117.369 31.4339 117.633 31.0691 117.967 30.819C118.304 30.5689 118.693 30.4473 119.141 30.4473C119.315 30.4473 119.478 30.4681 119.624 30.5098C119.773 30.5515 119.909 30.614 120.034 30.6974V31.5416C119.902 31.4409 119.749 31.3679 119.575 31.3193C119.402 31.2706 119.207 31.2463 118.992 31.2463C118.418 31.2463 117.956 31.4687 117.602 31.9168C117.244 32.365 117.067 32.9591 117.067 33.706L116.893 33.6435C116.893 32.9729 116.987 32.3962 117.178 31.9133Z" fill="#BB2026"/>
<path d="M122.046 37.3538C121.469 37.0307 121.024 36.5825 120.712 36.0058C120.396 35.4291 120.239 34.769 120.239 34.0256C120.239 33.3377 120.385 32.7124 120.674 32.1426C120.962 31.5763 121.379 31.1247 121.921 30.7947C122.463 30.4646 123.102 30.2979 123.838 30.2979C124.502 30.2979 125.072 30.4299 125.551 30.6904C126.031 30.951 126.399 31.3227 126.649 31.8021C126.903 32.2816 127.028 32.8444 127.028 33.4906V34.0117H120.792V33.3794H126.406L126.246 33.64V33.4524C126.246 32.9729 126.152 32.5526 125.968 32.1982C125.78 31.8438 125.503 31.5659 125.134 31.3714C124.766 31.1768 124.321 31.0795 123.8 31.0795C123.23 31.0795 122.737 31.2011 122.327 31.4443C121.917 31.6875 121.608 32.028 121.396 32.4622C121.184 32.8965 121.08 33.3863 121.08 33.9353V34.0221C121.08 34.6336 121.205 35.172 121.459 35.6306C121.712 36.0892 122.067 36.4436 122.522 36.6937C122.977 36.9438 123.515 37.0654 124.137 37.0654C124.676 37.0654 125.176 36.9751 125.635 36.7979C126.093 36.6207 126.489 36.3915 126.819 36.1101V36.8917C126.472 37.1905 126.055 37.4233 125.572 37.5866C125.089 37.7533 124.571 37.8367 124.026 37.8367C123.279 37.8367 122.619 37.6734 122.046 37.3538Z" fill="#BB2026"/>
<path d="M19.1077 11.4644C18.5379 10.2624 17.7319 9.33476 16.6862 8.68857C15.6405 8.03891 14.3794 7.71582 12.8959 7.71582C11.68 7.71582 10.5995 7.92079 9.66153 8.33074C8.72351 8.74069 7.96268 9.31739 7.37903 10.0574C7.05594 10.4673 6.77801 10.9051 6.54524 11.3636C6.36459 11.7215 6.20825 12.0932 6.07971 12.4788C6.07276 12.5032 6.06929 12.531 6.07276 12.5553L6.47923 16.0572C6.48965 16.1649 6.57998 16.217 6.66336 16.2135C6.73632 16.2135 6.8058 16.1649 6.82664 16.078C6.8857 15.814 6.96561 15.5673 7.05941 15.3346C7.32344 14.6988 7.71949 14.2055 8.25103 13.8476C8.7791 13.4898 9.41486 13.3126 10.1549 13.3126C10.8948 13.3126 11.4889 13.4585 11.9405 13.7504C12.3887 14.0422 12.7188 14.4834 12.9307 15.081C13.1426 15.675 13.2503 16.4115 13.2503 17.2835V28.2166C13.2503 28.3139 13.3302 28.3938 13.424 28.3938H19.7782C19.8754 28.3938 19.9519 28.3139 19.9519 28.2166V15.7758C19.9519 14.1082 19.667 12.6734 19.0972 11.4713M6.63209 12.7463L6.58346 12.6803C6.56261 12.6491 6.54872 12.6143 6.54872 12.5761V8.4836C6.54872 8.38633 6.46881 8.3099 6.37153 8.3099H0.173706C0.0764306 8.3099 0 8.3898 0 8.4836V28.2097C0 28.3069 0.0799047 28.3868 0.173706 28.3868H6.48966C6.58693 28.3868 6.66336 28.3069 6.66336 28.2097V12.8506C6.66336 12.8124 6.64946 12.7776 6.62862 12.7463" fill="#BB2026"/>
<path d="M40.5049 12.1181C39.7371 10.6624 38.6323 9.5646 37.1906 8.82461C35.7488 8.08462 34.0222 7.71289 32.0106 7.71289C29.815 7.71289 27.9042 8.1541 26.2783 9.04348C24.6525 9.92938 23.4087 11.1662 22.5506 12.7538C21.689 14.3415 21.2617 16.155 21.2617 18.1908C21.2617 20.3865 21.7446 22.2972 22.7104 23.9231C23.6762 25.549 25.0381 26.7997 26.796 27.6717C28.5539 28.5437 30.6245 28.9815 33.0042 28.9815C34.6718 28.9815 36.1726 28.7834 37.5102 28.3874C38.8095 28.0018 39.8622 27.505 40.6751 26.8935C40.7203 26.8588 40.7446 26.8067 40.7446 26.7511V22.4015C40.7446 22.2625 40.5952 22.1791 40.4771 22.2521C39.7232 22.7246 38.879 23.1032 37.9444 23.3881C36.8987 23.7043 35.8218 23.8641 34.71 23.8641C33.2023 23.8641 31.9307 23.6313 30.9024 23.1693C29.8706 22.7072 29.1028 22.0645 28.5991 21.2446C28.4115 20.9354 28.2551 20.6019 28.1335 20.2475C28.0953 20.1329 28.1787 20.0147 28.3003 20.0147H41.4811C41.5784 20.0147 41.6548 19.9348 41.6548 19.841V17.3987C41.6548 15.3351 41.2692 13.5772 40.5049 12.1215M35.7523 16.3634H28.3177C28.21 16.3634 28.1266 16.2662 28.1439 16.162C28.2239 15.6721 28.3489 15.2309 28.5192 14.8348C28.811 14.1609 29.2661 13.6397 29.888 13.268C30.5098 12.8963 31.2707 12.7121 32.1705 12.7121C32.9382 12.7121 33.6053 12.8581 34.175 13.1499C34.7448 13.4417 35.179 13.876 35.4848 14.4596C35.7418 14.9495 35.8878 15.5227 35.9295 16.1793C35.9364 16.2801 35.853 16.3634 35.7557 16.3634" fill="#BB2026"/>
<path d="M74.0196 8.31011H67.8044C67.7245 8.31011 67.655 8.36223 67.6341 8.43866L64.5595 19.9137C64.5144 20.0874 64.2677 20.0874 64.2191 19.9137L61.1132 8.43866C61.0924 8.36223 61.0229 8.31011 60.943 8.31011H54.5853C54.5054 8.31011 54.4359 8.36223 54.4151 8.43866L51.3683 19.6983C51.3231 19.872 51.073 19.872 51.0278 19.6948L48.2937 8.44213C48.2729 8.36223 48.2034 8.30664 48.1235 8.30664H41.8249C41.7102 8.30664 41.6234 8.41781 41.6581 8.52898L47.1542 28.255C47.175 28.3315 47.2445 28.3836 47.3244 28.3836H53.8071C53.8836 28.3836 53.953 28.3315 53.9739 28.2585L57.4063 16.5889C57.455 16.4222 57.6912 16.4222 57.7433 16.5889L61.3216 28.2655C61.3425 28.3384 61.412 28.3905 61.4884 28.3905H68.0545C68.1309 28.3905 68.2004 28.3419 68.2212 28.2655L74.1863 8.53941C74.2211 8.42823 74.1377 8.31359 74.0196 8.31359" fill="#BB2026"/>
<path d="M118.391 1.74401C118.065 1.20552 117.603 0.778203 117.009 0.469006C116.411 0.156335 115.744 0 115.008 0C114.212 0 113.517 0.156335 112.923 0.469006C112.325 0.781677 111.856 1.20899 111.519 1.74401C111.179 2.2825 111.009 2.92173 111.009 3.65825C111.009 4.39476 111.179 5.034 111.519 5.57249C111.86 6.11098 112.332 6.54524 112.944 6.87181C113.552 7.19838 114.243 7.36166 115.008 7.36166C115.716 7.36166 116.376 7.19838 116.988 6.87181C117.596 6.54524 118.065 6.11098 118.391 5.57249C118.718 5.034 118.881 4.39476 118.881 3.65825C118.881 2.92173 118.718 2.2825 118.391 1.74401Z" fill="#BB2026"/>
<path d="M125.993 22.5196C122.143 22.6342 119.416 21.2967 119.52 19.035C119.694 15.2205 119.465 8.14716 113.969 8.29307C108.674 9.42563 110.644 18.1283 110.543 19.3581C110.463 20.3378 110.231 21.4426 109.345 21.9359C104.682 24.5485 107.705 11.2218 103.38 8.9462C102.31 8.3834 101.08 8.07072 99.6519 8.07072C98.3005 8.07072 97.0985 8.34865 96.0423 8.90799C95.5143 9.18592 95.0314 9.52985 94.5971 9.93285C94.1663 10.3324 93.7807 10.7944 93.4472 11.319H93.4437C93.4437 11.319 93.4506 11.3086 93.4541 11.3017C92.9365 10.1899 92.2034 9.31793 91.248 8.68564C90.2683 8.03946 89.0802 7.71289 87.6766 7.71289C85.9569 7.71289 84.5256 8.23401 83.3722 9.27972C82.6913 9.89811 82.1389 10.6485 81.7255 11.5309V8.48067C81.7255 8.3834 81.6456 8.30349 81.5518 8.30349H75.3539C75.2532 8.30349 75.1768 8.3834 75.1768 8.48067V28.2067C75.1768 28.304 75.2567 28.3804 75.3539 28.3804H81.6699C81.7672 28.3804 81.8436 28.3005 81.8436 28.2067V16.1376C81.8922 16.1203 81.9339 16.0751 81.9478 16.0126C82.0104 15.7103 82.1007 15.422 82.2188 15.151C82.4689 14.5812 82.8268 14.1331 83.2888 13.7995C83.7509 13.4695 84.2998 13.3027 84.9356 13.3027C85.8354 13.3027 86.5232 13.6085 86.9992 14.2164C87.4751 14.8244 87.7149 15.6443 87.7149 16.6761V28.2067C87.7149 28.304 87.7913 28.3804 87.8886 28.3804H94.0829C94.1802 28.3804 94.2566 28.3005 94.2566 28.2067V15.5887C94.3122 15.3976 94.3817 15.2135 94.4685 15.0363C94.7187 14.5291 95.073 14.1365 95.5386 13.8586C96.0041 13.5772 96.5495 13.4382 97.1888 13.4382C98.1129 13.4382 98.8077 13.7301 99.2733 14.3137C99.7353 14.8974 99.9681 15.7346 99.9681 16.8255C99.9681 16.8255 100.138 29.6172 108.219 28.3665C108.236 28.3665 108.247 28.3665 108.264 28.3631C109.154 28.231 110.161 27.8037 110.957 27.3973C112.336 26.6955 113.764 25.7818 114.803 24.6596C114.643 24.4859 114.962 24.4859 114.803 24.6596C119.743 29.9889 127.018 27.3104 127.004 27.1471C127.004 27.1471 126.281 22.5092 126 22.5161M115.487 19.8028C115.195 20.0078 113.25 20.3483 113.719 14.8557C113.746 14.5152 113.781 14.1713 113.934 13.869C114.09 13.5598 114.215 13.4382 114.629 13.4209C115.841 13.3792 117.078 18.6911 115.487 19.7994" fill="#BB2026"/>
</g>
<defs>
<clipPath id="clip0_3723_843">
<rect width="127.031" height="37.8505" fill="white"/>
</clipPath>
</defs>
</svg>
