<svg width="128" height="38" viewBox="0 0 128 38" fill="none" xmlns="http://www.w3.org/2000/svg">
<g clip-path="url(#clip0_1552_531)">
<path d="M103.638 37.4873C103.048 37.1559 102.591 36.7025 102.27 36.127C101.95 35.5515 101.789 34.9167 101.789 34.2192C101.789 33.5216 101.95 32.8589 102.274 32.2799C102.598 31.701 103.062 31.2475 103.666 30.9127C104.269 30.5814 104.96 30.4139 105.741 30.4139C106.299 30.4139 106.784 30.4872 107.195 30.6372C107.607 30.7871 107.97 30.9825 108.287 31.2231V32.0707C107.956 31.7951 107.586 31.5824 107.178 31.4289C106.77 31.2754 106.309 31.1987 105.793 31.1987C105.162 31.1987 104.607 31.3278 104.129 31.5859C103.652 31.844 103.289 32.2032 103.038 32.6636C102.787 33.124 102.665 33.6402 102.665 34.2052C102.665 34.7703 102.787 35.283 103.031 35.7399C103.275 36.1968 103.638 36.556 104.115 36.8176C104.593 37.0792 105.158 37.2117 105.807 37.2117C106.299 37.2117 106.752 37.1315 107.174 36.9746C107.593 36.8176 107.973 36.6014 108.315 36.3258V37.1246C107.949 37.4001 107.551 37.6094 107.118 37.7593C106.686 37.9093 106.208 37.9826 105.685 37.9826C104.911 37.9826 104.231 37.8151 103.641 37.4838" fill="#BB2026"/>
<path d="M103.638 37.4873C103.048 37.1559 102.591 36.7025 102.27 36.127C101.95 35.5515 101.789 34.9167 101.789 34.2192C101.789 33.5216 101.95 32.8589 102.274 32.2799C102.598 31.701 103.062 31.2475 103.666 30.9127C104.269 30.5814 104.96 30.4139 105.741 30.4139C106.299 30.4139 106.784 30.4872 107.195 30.6372C107.607 30.7871 107.97 30.9825 108.287 31.2231V32.0707C107.956 31.7951 107.586 31.5824 107.178 31.4289C106.77 31.2754 106.309 31.1987 105.793 31.1987C105.162 31.1987 104.607 31.3278 104.129 31.5859C103.652 31.844 103.289 32.2032 103.038 32.6636C102.787 33.124 102.665 33.6402 102.665 34.2052C102.665 34.7703 102.787 35.283 103.031 35.7399C103.275 36.1968 103.638 36.556 104.115 36.8176C104.593 37.0792 105.158 37.2117 105.807 37.2117C106.299 37.2117 106.752 37.1315 107.174 36.9746C107.593 36.8176 107.973 36.6014 108.315 36.3258V37.1246C107.949 37.4001 107.551 37.6094 107.118 37.7593C106.686 37.9093 106.208 37.9826 105.685 37.9826C104.911 37.9826 104.231 37.8151 103.641 37.4838L103.638 37.4873Z" fill="#BB2026"/>
<path d="M110.784 37.6931C110.387 37.4908 110.076 37.2083 109.856 36.8525C109.637 36.4967 109.525 36.0991 109.525 35.6666C109.525 35.2341 109.637 34.8435 109.863 34.4947C110.087 34.1459 110.404 33.8704 110.812 33.6716C111.22 33.4728 111.684 33.3716 112.207 33.3716C112.64 33.3716 113.034 33.4414 113.393 33.5774C113.749 33.7134 114.049 33.9053 114.286 34.1459C114.523 34.3866 114.684 34.6691 114.767 34.9935L114.631 35.2062V33.5216C114.631 33.0229 114.534 32.5973 114.338 32.2486C114.143 31.8998 113.867 31.6347 113.508 31.4568C113.152 31.2789 112.734 31.1883 112.26 31.1883C111.754 31.1883 111.307 31.2789 110.924 31.4568C110.54 31.6347 110.191 31.8928 109.877 32.2241V31.3522C110.202 31.0766 110.568 30.8534 110.983 30.679C111.395 30.5046 111.869 30.4174 112.41 30.4174C113.034 30.4174 113.571 30.5325 114.024 30.7662C114.478 30.9999 114.83 31.3382 115.078 31.7882C115.329 32.2381 115.451 32.7787 115.451 33.41V37.8012H114.628V35.8689L114.827 36.0189C114.736 36.427 114.565 36.7793 114.314 37.0792C114.063 37.3792 113.752 37.6059 113.379 37.7663C113.006 37.9233 112.594 38.0035 112.144 38.0035C111.639 38.0035 111.185 37.9023 110.784 37.6966M113.554 37.0827C113.885 36.9292 114.146 36.72 114.338 36.4584C114.53 36.1968 114.624 35.9108 114.624 35.6039C114.624 35.2969 114.534 35.0214 114.356 34.7807C114.178 34.5401 113.927 34.3517 113.602 34.2122C113.278 34.0762 112.912 34.0064 112.504 34.0064C111.848 34.0064 111.328 34.1599 110.945 34.4633C110.561 34.7668 110.373 35.1609 110.373 35.6422C110.373 35.9666 110.456 36.2561 110.627 36.5107C110.798 36.7653 111.039 36.9606 111.349 37.1036C111.66 37.2466 112.026 37.3164 112.441 37.3164C112.856 37.3164 113.219 37.2397 113.55 37.0862" fill="#BB2026"/>
<path d="M110.784 37.6931C110.387 37.4908 110.076 37.2083 109.856 36.8525C109.637 36.4967 109.525 36.0991 109.525 35.6666C109.525 35.2341 109.637 34.8435 109.863 34.4947C110.087 34.1459 110.404 33.8704 110.812 33.6716C111.22 33.4728 111.684 33.3716 112.207 33.3716C112.64 33.3716 113.034 33.4414 113.393 33.5774C113.749 33.7134 114.049 33.9053 114.286 34.1459C114.523 34.3866 114.684 34.6691 114.767 34.9935L114.631 35.2062V33.5216C114.631 33.0229 114.534 32.5973 114.338 32.2486C114.143 31.8998 113.867 31.6347 113.508 31.4568C113.152 31.2789 112.734 31.1883 112.26 31.1883C111.754 31.1883 111.307 31.2789 110.924 31.4568C110.54 31.6347 110.191 31.8928 109.877 32.2241V31.3522C110.202 31.0766 110.568 30.8534 110.983 30.679C111.395 30.5046 111.869 30.4174 112.41 30.4174C113.034 30.4174 113.571 30.5325 114.024 30.7662C114.478 30.9999 114.83 31.3382 115.078 31.7882C115.329 32.2381 115.451 32.7787 115.451 33.41V37.8012H114.628V35.8689L114.827 36.0189C114.736 36.427 114.565 36.7793 114.314 37.0792C114.063 37.3792 113.752 37.6059 113.379 37.7663C113.006 37.9233 112.594 38.0035 112.144 38.0035C111.639 38.0035 111.185 37.9023 110.784 37.6966V37.6931ZM113.554 37.0827C113.885 36.9292 114.146 36.72 114.338 36.4584C114.53 36.1968 114.624 35.9108 114.624 35.6039C114.624 35.2969 114.534 35.0214 114.356 34.7807C114.178 34.5401 113.927 34.3517 113.602 34.2122C113.278 34.0762 112.912 34.0064 112.504 34.0064C111.848 34.0064 111.328 34.1599 110.945 34.4633C110.561 34.7668 110.373 35.1609 110.373 35.6422C110.373 35.9666 110.456 36.2561 110.627 36.5107C110.798 36.7653 111.039 36.9606 111.349 37.1036C111.66 37.2466 112.026 37.3164 112.441 37.3164C112.856 37.3164 113.219 37.2397 113.55 37.0862L113.554 37.0827Z" fill="#BB2026"/>
<path d="M116.707 30.6895H117.53V37.7977H116.707V30.6895ZM117.641 32.0393C117.833 31.558 118.098 31.1917 118.433 30.9406C118.771 30.6895 119.162 30.5674 119.612 30.5674C119.786 30.5674 119.95 30.5883 120.097 30.6302C120.247 30.6721 120.383 30.7348 120.508 30.8185V31.6661C120.376 31.5649 120.222 31.4917 120.048 31.4429C119.874 31.394 119.678 31.3696 119.462 31.3696C118.886 31.3696 118.423 31.5928 118.067 32.0428C117.708 32.4927 117.53 33.0891 117.53 33.839L117.355 33.7762C117.355 33.1031 117.449 32.5241 117.641 32.0428" fill="#BB2026"/>
<path d="M116.707 30.6895H117.53V37.7977H116.707V30.6895ZM117.641 32.0393C117.833 31.558 118.098 31.1917 118.433 30.9406C118.771 30.6895 119.162 30.5674 119.612 30.5674C119.786 30.5674 119.95 30.5883 120.097 30.6302C120.247 30.6721 120.383 30.7348 120.508 30.8185V31.6661C120.376 31.5649 120.222 31.4917 120.048 31.4429C119.874 31.394 119.678 31.3696 119.462 31.3696C118.886 31.3696 118.423 31.5928 118.067 32.0428C117.708 32.4927 117.53 33.0891 117.53 33.839L117.355 33.7762C117.355 33.1031 117.449 32.5241 117.641 32.0428V32.0393Z" fill="#BB2026"/>
<path d="M122.528 37.5012C121.949 37.1769 121.502 36.7269 121.188 36.148C120.871 35.569 120.714 34.9063 120.714 34.1599C120.714 33.4693 120.861 32.8415 121.15 32.2695C121.44 31.701 121.858 31.2475 122.402 30.9162C122.946 30.5849 123.588 30.4174 124.328 30.4174C124.994 30.4174 125.566 30.55 126.047 30.8116C126.528 31.0732 126.898 31.4464 127.149 31.9277C127.404 32.409 127.529 32.974 127.529 33.6228V34.1459H121.269V33.5112H126.905L126.745 33.7727V33.5844C126.745 33.1031 126.65 32.681 126.466 32.3253C126.277 31.9695 125.998 31.6905 125.628 31.4952C125.259 31.2999 124.812 31.2022 124.289 31.2022C123.717 31.2022 123.222 31.3243 122.81 31.5684C122.399 31.8126 122.088 32.1544 121.876 32.5904C121.663 33.0263 121.558 33.5181 121.558 34.0692V34.1564C121.558 34.7703 121.684 35.3109 121.938 35.7713C122.193 36.2317 122.549 36.5874 123.006 36.8386C123.463 37.0897 124.003 37.2118 124.627 37.2118C125.168 37.2118 125.67 37.1211 126.131 36.9432C126.591 36.7653 126.989 36.5351 127.32 36.2526V37.0374C126.971 37.3373 126.553 37.571 126.068 37.7349C125.583 37.9023 125.063 37.9861 124.516 37.9861C123.766 37.9861 123.103 37.8221 122.528 37.5012Z" fill="#BB2026"/>
<path d="M122.528 37.5012C121.949 37.1769 121.502 36.7269 121.188 36.148C120.871 35.569 120.714 34.9063 120.714 34.1599C120.714 33.4693 120.861 32.8415 121.15 32.2695C121.44 31.701 121.858 31.2475 122.402 30.9162C122.946 30.5849 123.588 30.4174 124.328 30.4174C124.994 30.4174 125.566 30.55 126.047 30.8116C126.528 31.0732 126.898 31.4464 127.149 31.9277C127.404 32.409 127.529 32.974 127.529 33.6228V34.1459H121.269V33.5112H126.905L126.745 33.7727V33.5844C126.745 33.1031 126.65 32.681 126.466 32.3253C126.277 31.9695 125.998 31.6905 125.628 31.4952C125.259 31.2999 124.812 31.2022 124.289 31.2022C123.717 31.2022 123.222 31.3243 122.81 31.5684C122.399 31.8126 122.088 32.1544 121.876 32.5904C121.663 33.0263 121.558 33.5181 121.558 34.0692V34.1564C121.558 34.7703 121.684 35.3109 121.938 35.7713C122.193 36.2317 122.549 36.5874 123.006 36.8386C123.463 37.0897 124.003 37.2118 124.627 37.2118C125.168 37.2118 125.67 37.1211 126.131 36.9432C126.591 36.7653 126.989 36.5351 127.32 36.2526V37.0374C126.971 37.3373 126.553 37.571 126.068 37.7349C125.583 37.9023 125.063 37.9861 124.516 37.9861C123.766 37.9861 123.103 37.8221 122.528 37.5012Z" fill="#BB2026"/>
<path d="M19.1831 11.5099C18.6111 10.3031 17.8019 9.37182 16.7521 8.72309C15.7022 8.07086 14.4362 7.74649 12.9469 7.74649C11.7261 7.74649 10.6414 7.95227 9.69968 8.36384C8.75796 8.7754 7.99413 9.35438 7.40817 10.0973C7.0838 10.5089 6.80477 10.9483 6.57109 11.4087C6.38972 11.768 6.23277 12.1412 6.10372 12.5283C6.09674 12.5527 6.09325 12.5806 6.09674 12.605L6.50482 16.1208C6.51528 16.2289 6.60597 16.2812 6.68967 16.2777C6.76292 16.2777 6.83268 16.2289 6.8536 16.1417C6.9129 15.8766 6.99312 15.629 7.08729 15.3953C7.35236 14.757 7.74998 14.2618 8.28362 13.9025C8.81377 13.5433 9.45204 13.3654 10.195 13.3654C10.9379 13.3654 11.5343 13.5119 11.9877 13.8049C12.4376 14.0978 12.769 14.5408 12.9817 15.1407C13.1945 15.7371 13.3026 16.4766 13.3026 17.352V28.3282C13.3026 28.4259 13.3828 28.5061 13.477 28.5061H19.8563C19.9539 28.5061 20.0307 28.4259 20.0307 28.3282V15.8383C20.0307 14.1641 19.7447 12.7236 19.1726 11.5168M6.65828 12.7969L6.60945 12.7306C6.58853 12.6992 6.57458 12.6643 6.57458 12.626V8.5173C6.57458 8.41964 6.49436 8.34291 6.3967 8.34291H0.174392C0.0767324 8.34291 0 8.42313 0 8.5173V28.3212C0 28.4189 0.0802203 28.4991 0.174392 28.4991H6.51528C6.61294 28.4991 6.68967 28.4189 6.68967 28.3212V12.9015C6.68967 12.8632 6.67572 12.8283 6.6548 12.7969" fill="#BB2026"/>
<path d="M19.1831 11.5099C18.6111 10.3031 17.8019 9.37182 16.7521 8.72309C15.7022 8.07086 14.4362 7.74649 12.9469 7.74649C11.7261 7.74649 10.6414 7.95227 9.69968 8.36384C8.75796 8.7754 7.99413 9.35438 7.40817 10.0973C7.0838 10.5089 6.80477 10.9483 6.57109 11.4087C6.38972 11.768 6.23277 12.1412 6.10372 12.5283C6.09674 12.5527 6.09325 12.5806 6.09674 12.605L6.50482 16.1208C6.51528 16.2289 6.60597 16.2812 6.68967 16.2777C6.76292 16.2777 6.83268 16.2289 6.8536 16.1417C6.9129 15.8766 6.99312 15.629 7.08729 15.3953C7.35236 14.757 7.74998 14.2618 8.28362 13.9025C8.81377 13.5433 9.45204 13.3654 10.195 13.3654C10.9379 13.3654 11.5343 13.5119 11.9877 13.8049C12.4376 14.0978 12.769 14.5408 12.9817 15.1407C13.1945 15.7371 13.3026 16.4766 13.3026 17.352V28.3282C13.3026 28.4259 13.3828 28.5061 13.477 28.5061H19.8563C19.9539 28.5061 20.0307 28.4259 20.0307 28.3282V15.8383C20.0307 14.1641 19.7447 12.7236 19.1726 11.5168L19.1831 11.5099ZM6.65828 12.7969L6.60945 12.7306C6.58853 12.6992 6.57458 12.6643 6.57458 12.626V8.5173C6.57458 8.41964 6.49436 8.34291 6.3967 8.34291H0.174392C0.0767324 8.34291 0 8.42313 0 8.5173V28.3212C0 28.4189 0.0802203 28.4991 0.174392 28.4991H6.51528C6.61294 28.4991 6.68967 28.4189 6.68967 28.3212V12.9015C6.68967 12.8632 6.67572 12.8283 6.6548 12.7969H6.65828Z" fill="#BB2026"/>
<path d="M40.6647 12.1656C39.8939 10.7042 38.7848 9.60202 37.3373 8.85911C35.8899 8.1162 34.1564 7.743 32.137 7.743C29.9326 7.743 28.0143 8.18596 26.382 9.07885C24.7497 9.96824 23.5011 11.2099 22.6396 12.8039C21.7746 14.3978 21.3456 16.2185 21.3456 18.2623C21.3456 20.4666 21.8304 22.3849 22.8 24.0173C23.7696 25.6496 25.1369 26.9052 26.9017 27.7806C28.6666 28.6561 30.7453 29.0956 33.1345 29.0956C34.8086 29.0956 36.3154 28.8967 37.6582 28.4991C38.9627 28.112 40.0195 27.6132 40.8356 26.9994C40.881 26.9645 40.9054 26.9122 40.9054 26.8564V22.4896C40.9054 22.3501 40.7554 22.2664 40.6368 22.3396C39.88 22.814 39.0324 23.1941 38.0942 23.4801C37.0443 23.7975 35.9631 23.958 34.847 23.958C33.3333 23.958 32.0567 23.7243 31.0243 23.2604C29.9884 22.7965 29.2176 22.1513 28.7119 21.3281C28.5236 21.0177 28.3666 20.6829 28.2445 20.3271C28.2062 20.212 28.2899 20.0934 28.4119 20.0934H41.6448C41.7425 20.0934 41.8192 20.0132 41.8192 19.919V17.4671C41.8192 15.3953 41.432 13.6305 40.6647 12.1691M35.8934 16.4277H28.4294C28.3213 16.4277 28.2376 16.3301 28.255 16.2254C28.3352 15.7336 28.4608 15.2907 28.6317 14.8931C28.9247 14.2164 29.3816 13.6933 30.0059 13.3201C30.6302 12.9469 31.394 12.762 32.2974 12.762C33.0682 12.762 33.7379 12.9085 34.3099 13.2015C34.8819 13.4944 35.3179 13.9304 35.6248 14.5164C35.8829 15.0082 36.0294 15.5837 36.0712 16.2429C36.0782 16.344 35.9945 16.4277 35.8968 16.4277" fill="#BB2026"/>
<path d="M40.6647 12.1656C39.8939 10.7042 38.7848 9.60202 37.3373 8.85911C35.8899 8.1162 34.1564 7.743 32.137 7.743C29.9326 7.743 28.0143 8.18596 26.382 9.07885C24.7497 9.96824 23.5011 11.2099 22.6396 12.8039C21.7746 14.3978 21.3456 16.2185 21.3456 18.2623C21.3456 20.4666 21.8304 22.3849 22.8 24.0173C23.7696 25.6496 25.1369 26.9052 26.9017 27.7806C28.6666 28.6561 30.7453 29.0956 33.1345 29.0956C34.8086 29.0956 36.3154 28.8967 37.6582 28.4991C38.9627 28.112 40.0195 27.6132 40.8356 26.9994C40.881 26.9645 40.9054 26.9122 40.9054 26.8564V22.4896C40.9054 22.3501 40.7554 22.2664 40.6368 22.3396C39.88 22.814 39.0324 23.1941 38.0942 23.4801C37.0443 23.7975 35.9631 23.958 34.847 23.958C33.3333 23.958 32.0567 23.7243 31.0243 23.2604C29.9884 22.7965 29.2176 22.1513 28.7119 21.3281C28.5236 21.0177 28.3666 20.6829 28.2445 20.3271C28.2062 20.212 28.2899 20.0934 28.4119 20.0934H41.6448C41.7425 20.0934 41.8192 20.0132 41.8192 19.919V17.4671C41.8192 15.3953 41.432 13.6305 40.6647 12.1691V12.1656ZM35.8934 16.4277H28.4294C28.3213 16.4277 28.2376 16.3301 28.255 16.2254C28.3352 15.7336 28.4608 15.2907 28.6317 14.8931C28.9247 14.2164 29.3816 13.6933 30.0059 13.3201C30.6302 12.9469 31.394 12.762 32.2974 12.762C33.0682 12.762 33.7379 12.9085 34.3099 13.2015C34.8819 13.4944 35.3179 13.9304 35.6248 14.5164C35.8829 15.0082 36.0294 15.5837 36.0712 16.2429C36.0782 16.344 35.9945 16.4277 35.8968 16.4277H35.8934Z" fill="#BB2026"/>
<path d="M74.3119 8.34291H68.0721C67.9919 8.34291 67.9221 8.39523 67.9012 8.47196L64.8145 19.9923C64.7691 20.1667 64.5215 20.1667 64.4727 19.9923L61.3545 8.47196C61.3336 8.39523 61.2639 8.34291 61.1836 8.34291H54.8009C54.7207 8.34291 54.6509 8.39523 54.63 8.47196L51.5712 19.776C51.5258 19.9504 51.2747 19.9504 51.2294 19.7726L48.4844 8.47545C48.4635 8.39523 48.3937 8.33942 48.3135 8.33942H41.9901C41.875 8.33942 41.7878 8.45103 41.8227 8.56265L47.3404 28.3666C47.3613 28.4433 47.4311 28.4956 47.5113 28.4956H54.0196C54.0964 28.4956 54.1661 28.4433 54.187 28.3701L57.633 16.6544C57.6819 16.487 57.919 16.487 57.9713 16.6544L61.5638 28.3771C61.5847 28.4503 61.6545 28.5026 61.7312 28.5026H68.3233C68.4 28.5026 68.4697 28.4538 68.4907 28.3771L74.4793 8.57311C74.5142 8.4615 74.4305 8.3464 74.3119 8.3464" fill="#BB2026"/>
<path d="M74.3119 8.34291H68.0721C67.9919 8.34291 67.9221 8.39523 67.9012 8.47196L64.8145 19.9923C64.7691 20.1667 64.5215 20.1667 64.4727 19.9923L61.3545 8.47196C61.3336 8.39523 61.2639 8.34291 61.1836 8.34291H54.8009C54.7207 8.34291 54.6509 8.39523 54.63 8.47196L51.5712 19.776C51.5258 19.9504 51.2747 19.9504 51.2294 19.7726L48.4844 8.47545C48.4635 8.39523 48.3937 8.33942 48.3135 8.33942H41.9901C41.875 8.33942 41.7878 8.45103 41.8227 8.56265L47.3404 28.3666C47.3613 28.4433 47.4311 28.4956 47.5113 28.4956H54.0196C54.0964 28.4956 54.1661 28.4433 54.187 28.3701L57.633 16.6544C57.6819 16.487 57.919 16.487 57.9713 16.6544L61.5638 28.3771C61.5847 28.4503 61.6545 28.5026 61.7312 28.5026H68.3233C68.4 28.5026 68.4697 28.4538 68.4907 28.3771L74.4793 8.57311C74.5142 8.4615 74.4305 8.3464 74.3119 8.3464V8.34291Z" fill="#BB2026"/>
<path d="M94.503 16.6265V16.8218C94.503 16.7556 94.5065 16.6893 94.5169 16.623C94.5134 16.623 94.5099 16.623 94.503 16.6265Z" fill="#BB2026"/>
<path d="M94.503 16.6265V16.8218C94.503 16.7556 94.5065 16.6893 94.5169 16.623C94.5134 16.623 94.5099 16.623 94.503 16.6265Z" fill="#BB2026"/>
<path d="M115.249 24.7567C115.087 24.5823 115.411 24.5823 115.249 24.7567V24.7567Z" fill="#BB2026"/>
<path d="M94.5169 16.623C94.5099 16.6893 94.5065 16.7556 94.503 16.8218V16.6265C94.503 16.6265 94.5099 16.6265 94.5169 16.623Z" fill="#BB2026"/>
<path d="M94.5169 16.623C94.5099 16.6893 94.5065 16.7556 94.503 16.8218V16.6265C94.503 16.6265 94.5099 16.6265 94.5169 16.623Z" fill="#BB2026"/>
<path d="M118.859 1.75089C118.531 1.21028 118.067 0.781276 117.47 0.470858C116.87 0.156953 116.201 0 115.461 0C114.663 0 113.965 0.156953 113.369 0.470858C112.769 0.784764 112.298 1.21377 111.96 1.75089C111.618 2.29151 111.447 2.93327 111.447 3.67269C111.447 4.41212 111.618 5.05388 111.96 5.59449C112.301 6.13511 112.776 6.57109 113.39 6.89894C114 7.2268 114.694 7.39073 115.461 7.39073C116.173 7.39073 116.836 7.2268 117.449 6.89894C118.06 6.57109 118.531 6.13511 118.859 5.59449C119.186 5.05388 119.35 4.41212 119.35 3.67269C119.35 2.93327 119.186 2.29151 118.859 1.75089Z" fill="#BB2026"/>
<path d="M118.859 1.75089C118.531 1.21028 118.067 0.781276 117.47 0.470858C116.87 0.156953 116.201 0 115.461 0C114.663 0 113.965 0.156953 113.369 0.470858C112.769 0.784764 112.298 1.21377 111.96 1.75089C111.618 2.29151 111.447 2.93327 111.447 3.67269C111.447 4.41212 111.618 5.05388 111.96 5.59449C112.301 6.13511 112.776 6.57109 113.39 6.89894C114 7.2268 114.694 7.39073 115.461 7.39073C116.173 7.39073 116.836 7.2268 117.449 6.89894C118.06 6.57109 118.531 6.13511 118.859 5.59449C119.186 5.05388 119.35 4.41212 119.35 3.67269C119.35 2.93327 119.186 2.29151 118.859 1.75089Z" fill="#BB2026"/>
<path d="M94.5169 16.623C94.5099 16.6893 94.5065 16.7556 94.503 16.8218V16.6265C94.503 16.6265 94.5099 16.6265 94.5169 16.623Z" fill="#BB2026"/>
<path d="M94.5169 16.623C94.5099 16.6893 94.5065 16.7556 94.503 16.8218V16.6265C94.503 16.6265 94.5099 16.6265 94.5169 16.623Z" fill="#BB2026"/>
<path d="M115.249 24.7567C115.087 24.5823 115.411 24.5823 115.249 24.7567V24.7567Z" fill="#BB2026"/>
<path d="M94.503 16.8218C94.503 16.7556 94.5065 16.6858 94.5169 16.623C94.5134 16.623 94.5099 16.623 94.503 16.6265V16.8218Z" fill="#BB2026"/>
<path d="M94.503 16.8218C94.503 16.7556 94.5065 16.6858 94.5169 16.623C94.5134 16.623 94.5099 16.623 94.503 16.6265V16.8218Z" fill="#BB2026"/>
<path d="M126.49 22.6082C122.625 22.7233 119.887 21.3805 119.992 19.1099C120.166 15.2802 119.936 8.17898 114.419 8.32547C109.103 9.46251 111.081 18.1995 110.98 19.4342C110.899 20.4178 110.666 21.5269 109.776 22.0222C105.096 24.6451 108.13 11.2657 103.788 8.98119C102.713 8.41616 101.479 8.10225 100.045 8.10225C98.6884 8.10225 97.4816 8.38128 96.4213 8.94282C95.8911 9.22185 95.4063 9.56714 94.9703 9.97173C94.5379 10.3728 94.1507 10.8367 93.8159 11.3634H93.8124C93.8124 11.3634 93.8194 11.3529 93.8228 11.3459C93.3032 10.2298 92.5672 9.35439 91.6081 8.7196C90.6245 8.07086 89.4317 7.743 88.0226 7.743C86.2961 7.743 84.8591 8.26618 83.7011 9.31602C83.0175 9.93685 82.463 10.6902 82.0479 11.5761V8.51382C82.0479 8.41616 81.9677 8.33594 81.8735 8.33594H75.6512C75.5501 8.33594 75.4733 8.41616 75.4733 8.51382V28.3178C75.4733 28.4154 75.5535 28.4922 75.6512 28.4922H81.9921C82.0898 28.4922 82.1665 28.4119 82.1665 28.3178V16.201C82.2153 16.1836 82.2572 16.1382 82.2711 16.0754C82.3339 15.772 82.4246 15.4825 82.5432 15.2105C82.7943 14.6385 83.1536 14.1885 83.6174 13.8537C84.0813 13.5224 84.6324 13.3549 85.2707 13.3549C86.174 13.3549 86.8646 13.6619 87.3424 14.2722C87.8203 14.8826 88.0609 15.7057 88.0609 16.7416V28.3178C88.0609 28.4154 88.1377 28.4922 88.2353 28.4922H94.4541C94.5518 28.4922 94.6285 28.4119 94.6285 28.3178V15.6499C94.6843 15.4581 94.7541 15.2732 94.8413 15.0954C95.0924 14.5861 95.4482 14.192 95.9156 13.913C96.3829 13.6305 96.9305 13.491 97.5723 13.491C98.5 13.491 99.1976 13.7839 99.665 14.3699C100.129 14.9559 100.363 15.7964 100.363 16.8916C100.363 16.8916 100.533 29.7338 108.646 28.4782C108.664 28.4782 108.674 28.4782 108.692 28.4747C109.584 28.3422 110.596 27.9132 111.395 27.5051C112.779 26.8006 114.213 25.8833 115.256 24.7567C115.095 24.5823 115.416 24.5823 115.256 24.7567C120.215 30.107 127.519 27.4179 127.505 27.254C127.505 27.254 126.779 22.5977 126.497 22.6047M115.943 19.8807C115.65 20.0865 113.697 20.4283 114.167 14.914C114.195 14.5722 114.23 14.2269 114.384 13.9235C114.541 13.613 114.666 13.491 115.081 13.4735C116.298 13.4317 117.54 18.7646 115.943 19.8772" fill="#BB2026"/>
<path d="M126.49 22.6082C122.625 22.7233 119.887 21.3805 119.992 19.1099C120.166 15.2802 119.936 8.17898 114.419 8.32547C109.103 9.46251 111.081 18.1995 110.98 19.4342C110.899 20.4178 110.666 21.5269 109.776 22.0222C105.096 24.6451 108.13 11.2657 103.788 8.98119C102.713 8.41616 101.479 8.10225 100.045 8.10225C98.6884 8.10225 97.4816 8.38128 96.4213 8.94282C95.8911 9.22185 95.4063 9.56714 94.9703 9.97173C94.5379 10.3728 94.1507 10.8367 93.8159 11.3634H93.8124C93.8124 11.3634 93.8194 11.3529 93.8228 11.3459C93.3032 10.2298 92.5672 9.35439 91.6081 8.7196C90.6245 8.07086 89.4317 7.743 88.0226 7.743C86.2961 7.743 84.8591 8.26618 83.7011 9.31602C83.0175 9.93685 82.463 10.6902 82.0479 11.5761V8.51382C82.0479 8.41616 81.9677 8.33594 81.8735 8.33594H75.6512C75.5501 8.33594 75.4733 8.41616 75.4733 8.51382V28.3178C75.4733 28.4154 75.5535 28.4922 75.6512 28.4922H81.9921C82.0898 28.4922 82.1665 28.4119 82.1665 28.3178V16.201C82.2153 16.1836 82.2572 16.1382 82.2711 16.0754C82.3339 15.772 82.4246 15.4825 82.5432 15.2105C82.7943 14.6385 83.1536 14.1885 83.6174 13.8537C84.0813 13.5224 84.6324 13.3549 85.2707 13.3549C86.174 13.3549 86.8646 13.6619 87.3424 14.2722C87.8203 14.8826 88.0609 15.7057 88.0609 16.7416V28.3178C88.0609 28.4154 88.1377 28.4922 88.2353 28.4922H94.4541C94.5518 28.4922 94.6285 28.4119 94.6285 28.3178V15.6499C94.6843 15.4581 94.7541 15.2732 94.8413 15.0954C95.0924 14.5861 95.4482 14.192 95.9156 13.913C96.3829 13.6305 96.9305 13.491 97.5723 13.491C98.5 13.491 99.1976 13.7839 99.665 14.3699C100.129 14.9559 100.363 15.7964 100.363 16.8916C100.363 16.8916 100.533 29.7338 108.646 28.4782C108.664 28.4782 108.674 28.4782 108.692 28.4747C109.584 28.3422 110.596 27.9132 111.395 27.5051C112.779 26.8006 114.213 25.8833 115.256 24.7567C115.095 24.5823 115.416 24.5823 115.256 24.7567C120.215 30.107 127.519 27.4179 127.505 27.254C127.505 27.254 126.779 22.5977 126.497 22.6047L126.49 22.6082ZM115.943 19.8807C115.65 20.0865 113.697 20.4283 114.167 14.914C114.195 14.5722 114.23 14.2269 114.384 13.9235C114.541 13.613 114.666 13.491 115.081 13.4735C116.298 13.4317 117.54 18.7646 115.943 19.8772V19.8807Z" fill="#BB2026"/>
<path d="M94.503 16.8218V16.6265C94.503 16.6265 94.5099 16.6265 94.5169 16.623C94.5099 16.6893 94.5065 16.7556 94.503 16.8218Z" fill="#BB2026"/>
<path d="M94.503 16.8218V16.6265C94.503 16.6265 94.5099 16.6265 94.5169 16.623C94.5099 16.6893 94.5065 16.7556 94.503 16.8218Z" fill="#BB2026"/>
</g>
<defs>
<clipPath id="clip0_1552_531">
<rect width="127.533" height="38" fill="white"/>
</clipPath>
</defs>
</svg>
