<svg width="55" height="63" viewBox="0 0 55 63" fill="none" xmlns="http://www.w3.org/2000/svg">
<path d="M33.7795 0H21.2024C18.9302 0 16.9832 1.43368 16.227 3.43856H0V63H54.9963L55 3.44508H38.7729C38.0168 1.44384 36.0697 0.00652051 33.7976 0.00652051L33.7795 0ZM9.19486 48.198H45.7796V51.924H9.19486V48.198ZM45.7759 43.0092H9.19486V39.2832H45.7796V43.0092H45.7759ZM36.2558 22.8505V26.5765H29.3553V33.45H25.6147V26.5765H18.7141V22.8505H25.6147V15.977H29.3553V22.8505H36.2558ZM21.1912 3.72575H33.7683C34.6377 3.72575 35.35 4.43529 35.35 5.30129C35.35 6.16731 34.6377 6.87684 33.7683 6.87684H21.1912C20.3218 6.87684 19.6095 6.1673 19.6095 5.30129C19.6095 4.43528 20.3218 3.72575 21.1912 3.72575Z" fill="#353535"/>
</svg>
