<svg width="82" height="85" viewBox="0 0 82 85" fill="none" xmlns="http://www.w3.org/2000/svg">
<path d="M36.0478 19.1318L39.7614 21.2905L45.9522 10.4928L53.0951 14.6441H53.091C53.5939 14.9098 54.2121 14.7272 54.4965 14.2332C54.7768 13.7391 54.6202 13.1122 54.1379 12.8093L32.3256 0.121915C31.8228 -0.143777 31.2045 0.0388873 30.9202 0.532909C30.6399 1.02693 30.7965 1.65796 31.2787 1.95681L38.4175 6.1082L32.2267 16.9017L35.9981 19.0936L36.0478 19.1318ZM48.6021 55.7229V79.461H78.9706V55.7229H48.6021ZM61.1363 70.2616H55.7369V64.9229H61.1322V59.4886H66.4368V64.9229H71.8322V70.2616H66.4368V75.6959H61.1322L61.1363 70.2616ZM18.0436 13.5533H18.0477C17.5407 13.2586 17.3676 12.6109 17.6602 12.1044C17.9488 11.598 18.5917 11.4236 19.0946 11.7142L34.9917 20.9594L39.5792 23.6247L39.6616 23.6745L50.897 30.213H50.9011C51.3792 30.5119 51.54 31.1429 51.2556 31.6369C50.9753 32.1309 50.3529 32.3135 49.8542 32.0478L43.886 28.5773L23.1416 64.7656L9.56903 67.2399C9.54429 67.327 9.51132 67.4101 9.46598 67.4889L1.94385 80.6163V80.6121C1.64296 81.0978 1.02058 81.2556 0.525923 80.9733C0.0354417 80.6868 -0.141793 80.0641 0.121997 79.5577L7.64413 66.4304V66.4345C7.68947 66.3556 7.74717 66.2809 7.809 66.2145L3.15553 53.1414L7.36794 45.785L13.9998 49.6417C14.4986 49.9115 15.1209 49.733 15.4053 49.2348C15.6897 48.7408 15.5372 48.1098 15.055 47.8067L8.42307 43.95L12.8787 36.1702L19.5147 40.031C20.0134 40.2967 20.6358 40.1141 20.9161 39.62C21.2005 39.126 21.0397 38.495 20.5616 38.1961L13.9297 34.3395L18.3894 26.5555L25.0255 30.4122C25.5283 30.6779 26.1466 30.4994 26.4268 30.0054C26.7112 29.5113 26.5546 28.8803 26.0723 28.5772L19.4404 24.7205L23.892 16.949L18.0436 13.5533ZM47.5469 48.0561H82V43.145H45.5727V48.0561H47.5469ZM78.9706 81.5876H48.6021V85H78.9706V81.5876ZM48.6021 53.5985H78.9706V50.1819H48.6021V53.5985Z" fill="#353535"/>
</svg>
