<svg width="71" height="71" viewBox="0 0 71 71" fill="none" xmlns="http://www.w3.org/2000/svg">
<g clip-path="url(#clip0_1998_972)">
<path d="M4.58337 16.7589C5.8917 16.7589 6.9667 17.7692 7.05003 19.0551L8.50837 37.0911L17.4667 46.5684C17.9167 47.1028 18.6834 47.1946 19.225 46.8105C19.6084 46.5433 19.7334 46.1509 19.7584 45.9421C19.7917 45.7334 19.7584 45.3493 19.5167 44.9568L13.625 37.5587C12.7584 36.4816 12.9417 34.9368 13.9834 34.0684C15.0584 33.2 16.6 33.3503 17.4917 34.3941L26.8084 45.4578C28.625 47.5787 29.4584 50.4094 29.1584 53.1816L28.95 70.9838L12.7584 70.775L13.7084 59.1101L1.2167 44.0968C0.2917 42.8777 -0.124967 41.3496 0.0250332 39.8299L2.07503 19.0384C2.1917 17.7525 3.2667 16.7422 4.57503 16.7422L4.58337 16.7589Z" fill="#353535"/>
<path d="M66.425 16.758C65.1166 16.758 64.0416 17.7684 63.9583 19.0543L62.5 37.0902L53.5416 46.5675C53.0916 47.1019 52.325 47.1937 51.7833 46.8096C51.4 46.5424 51.275 46.15 51.25 45.9412C51.2166 45.7325 51.25 45.3484 51.4916 44.9559L57.3833 37.5578C58.25 36.4807 58.0666 34.9359 57.025 34.0675C55.95 33.1991 54.4083 33.3494 53.5166 34.3932L44.2 45.4569C42.3833 47.5778 41.55 50.4085 41.85 53.1807L42.0583 70.9829L58.25 70.7741L57.3 59.1092L69.8 44.0792C70.725 42.8601 71.1416 41.332 70.9916 39.8123L68.9416 19.0209C68.825 17.735 67.75 16.7246 66.4416 16.7246L66.425 16.758Z" fill="#353535"/>
<path d="M44.875 0C41.3333 0 38.2083 2.0875 36.25 5.2772C35.7417 6.1122 34.6167 6.1122 34.1083 5.2772C32.1417 2.0875 29.0167 0 25.4833 0C19.5583 0 13.3417 4.3253 12.8333 13.0928C12.2083 24.3068 24.7333 35.404 31.3167 40.414C33.6083 42.1758 36.7667 42.1758 39.0583 40.414C45.6333 35.404 58.1667 24.3152 57.5417 13.0928C57.0333 4.3253 50.8167 0 44.8917 0H44.875ZM44.0167 22.7287H37.3833V29.3753H32.975V22.7287H26.3417V18.2865H32.975V11.6649H37.3833V18.2865H44.0167V22.7287Z" fill="#353535"/>
</g>
<defs>
<clipPath id="clip0_1998_972">
<rect width="71" height="71" fill="white"/>
</clipPath>
</defs>
</svg>
