<svg width="43" height="95" viewBox="0 0 43 95" fill="none" xmlns="http://www.w3.org/2000/svg">
<path d="M26.6938 17.9893L27.1421 18.0186C29.3564 18.2226 31.1524 19.255 32.5171 20.541C33.8871 21.8321 34.8029 23.3618 35.2456 24.5078L35.3276 24.7324L41.6733 46.6797C42.2601 48.8367 41.2408 50.2428 40.0474 50.6631C39.4381 50.8776 38.7669 50.8457 38.1772 50.5293C37.6277 50.2343 37.1095 49.6701 36.7856 48.7393L36.7241 48.5488L31.0259 28.2959L30.9233 27.9316H28.0728L28.2515 28.5674L38.0796 63.501H28.8569V90.7217C28.8569 91.8083 28.4832 92.5806 27.9614 93.082C27.4335 93.5893 26.7226 93.8496 26.0015 93.8496C25.2803 93.8496 24.5695 93.5894 24.0415 93.082C23.5198 92.5806 23.146 91.8083 23.146 90.7217V63.501H19.979V90.7217C19.979 91.8033 19.5964 92.5744 19.0571 93.0771C18.5106 93.5867 17.7715 93.8495 17.02 93.8496C16.2684 93.8496 15.5286 93.5868 14.9819 93.0771C14.4427 92.5744 14.0601 91.8033 14.0601 90.7217V63.501H5.07178L14.6958 28.5645L14.8696 27.9316H12.2319L12.1294 28.2959L6.43311 48.542C6.11095 49.5553 5.55538 50.1649 4.96045 50.4766C4.36124 50.7905 3.68271 50.8236 3.0708 50.6133C1.87764 50.2033 0.864031 48.8223 1.48193 46.6475L1.48096 46.6465L7.83545 24.707L7.83447 24.7061C8.51772 22.3749 11.2801 18.44 16.0239 18.0186L16.4897 17.9893H26.6938ZM21.5474 0.5C25.6416 0.5 28.9751 3.79191 28.9751 7.8457C28.9748 11.8993 25.6415 15.1904 21.5474 15.1904C17.4534 15.1903 14.1199 11.8992 14.1196 7.8457C14.1196 3.79199 17.4532 0.500138 21.5474 0.5Z" fill="#353535" stroke="#353535"/>
</svg>
