<svg width="71" height="72" viewBox="0 0 71 72" fill="none" xmlns="http://www.w3.org/2000/svg">
<path d="M67.5704 34.3674H51.5367C50.6255 34.3674 49.7516 34.7295 49.1073 35.374C48.4629 36.0185 48.101 36.8927 48.101 37.8042V67.5894C48.101 68.5008 48.4629 69.375 49.1073 70.0195C49.7516 70.664 50.6255 71.0261 51.5367 71.0261H67.5704C68.4816 71.0261 69.3555 70.664 69.9999 70.0195C70.6442 69.375 71.0062 68.5008 71.0062 67.5894V37.8042C71.0062 36.8927 70.6442 36.0185 69.9999 35.374C69.3555 34.7295 68.4816 34.3674 67.5704 34.3674ZM68.7157 67.5894C68.7157 67.8932 68.595 68.1846 68.3802 68.3994C68.1654 68.6142 67.8741 68.7349 67.5704 68.7349H51.5367C51.233 68.7349 50.9417 68.6142 50.7269 68.3994C50.5121 68.1846 50.3915 67.8932 50.3915 67.5894V37.8042C50.3915 37.5004 50.5121 37.209 50.7269 36.9941C50.9417 36.7793 51.233 36.6586 51.5367 36.6586H54.3999L55.2291 38.3163C55.3241 38.5065 55.4702 38.6666 55.6511 38.7784C55.8319 38.8903 56.0403 38.9497 56.2529 38.9498H62.8542C63.0668 38.9497 63.2752 38.8903 63.4561 38.7784C63.6369 38.6666 63.783 38.5065 63.8781 38.3163L64.7072 36.6586H67.5704C67.8741 36.6586 68.1654 36.7793 68.3802 36.9941C68.595 37.209 68.7157 37.5004 68.7157 37.8042V67.5894Z" fill="#353535"/>
<path d="M22.9052 0C18.375 0 13.9465 1.34375 10.1798 3.86131C6.41303 6.37888 3.47721 9.95719 1.74357 14.1438C0.0099244 18.3303 -0.443675 22.9371 0.440128 27.3815C1.32393 31.8259 3.50544 35.9084 6.7088 39.1127C9.91215 42.3169 13.9935 44.4991 18.4366 45.3831C22.8798 46.2672 27.4853 45.8134 31.6707 44.0793C35.8561 42.3452 39.4334 39.4085 41.9502 35.6407C44.4671 31.8729 45.8105 27.4432 45.8105 22.9117C45.8105 19.9029 45.218 16.9235 44.0669 14.1438C42.9158 11.364 41.2286 8.83822 39.1017 6.71067C36.9747 4.58313 34.4497 2.89547 31.6707 1.74405C28.8917 0.592628 25.9132 0 22.9052 0ZM35.5031 17.2319C35.5031 17.371 35.4478 17.5045 35.3495 17.6029C35.2511 17.7013 35.1177 17.7565 34.9786 17.7565H27.4863V25.7756L28.5846 38.9498C28.5911 39.0225 28.5824 39.0958 28.5591 39.165C28.5357 39.2341 28.4983 39.2977 28.449 39.3516C28.3998 39.4054 28.3399 39.4485 28.2731 39.4779C28.2063 39.5074 28.1342 39.5226 28.0612 39.5226H25.6344C25.5114 39.523 25.3923 39.48 25.2978 39.4012C25.2034 39.3225 25.1397 39.2129 25.1179 39.0919L22.9052 26.9212L20.6926 39.0919C20.6708 39.2129 20.6071 39.3225 20.5126 39.4012C20.4182 39.48 20.299 39.523 20.1761 39.5226H17.7516C17.6786 39.5226 17.6064 39.5074 17.5396 39.4779C17.4729 39.4485 17.413 39.4054 17.3637 39.3516C17.3145 39.2977 17.277 39.2341 17.2537 39.165C17.2303 39.0958 17.2217 39.0225 17.2282 38.9498L18.3242 25.7756V17.7565H10.8319C10.6928 17.7565 10.5594 17.7013 10.461 17.6029C10.3626 17.5045 10.3074 17.371 10.3074 17.2319V14.7838C10.3069 14.6559 10.3533 14.5323 10.4377 14.4363C10.522 14.3403 10.6386 14.2785 10.7655 14.2625L18.0528 13.346C18.9954 13.2289 19.9443 13.17 20.8942 13.1696H22.9052C22.2257 13.1696 21.5614 12.9681 20.9964 12.5904C20.4314 12.2128 19.991 11.6761 19.731 11.0481C19.4709 10.4201 19.4029 9.72907 19.5355 9.0624C19.668 8.39574 19.9953 7.78337 20.4758 7.30273C20.9563 6.82209 21.5685 6.49477 22.2349 6.36216C22.9014 6.22956 23.5922 6.29762 24.2201 6.55773C24.8479 6.81785 25.3845 7.25835 25.762 7.82352C26.1395 8.38869 26.341 9.05315 26.341 9.73288C26.341 10.6444 25.979 11.5185 25.3347 12.163C24.6904 12.8075 23.8165 13.1696 22.9052 13.1696H24.9152C25.865 13.17 26.814 13.2289 27.7566 13.346L35.0439 14.2625C35.1707 14.2785 35.2873 14.3403 35.3717 14.4363C35.4561 14.5323 35.5024 14.6559 35.502 14.7838L35.5031 17.2319Z" fill="#353535"/>
<path d="M61.9643 53.3304L61.0584 55.1427L59.5192 48.9829C59.4626 48.7556 59.3377 48.5512 59.1614 48.3971C58.9851 48.243 58.7658 48.1467 58.5331 48.1211C58.3003 48.0955 58.0653 48.1419 57.8598 48.254C57.6542 48.3661 57.4879 48.5385 57.3833 48.7481L55.41 52.6969H52.682V54.988H56.1178C56.3316 54.9892 56.5414 54.9305 56.7236 54.8185C56.9058 54.7066 57.053 54.5458 57.1485 54.3545L58.0544 52.5422L59.5937 58.702C59.6503 58.9293 59.7751 59.1337 59.9515 59.2878C60.1278 59.4419 60.3471 59.5382 60.5798 59.5638C60.8125 59.5894 61.0475 59.543 61.2531 59.4309C61.4587 59.3188 61.625 59.1464 61.7296 58.9369L63.6971 54.988H66.4251V52.6969H62.9894C62.7765 52.6968 62.5679 52.756 62.3868 52.8679C62.2058 52.9798 62.0595 53.14 61.9643 53.3304Z" fill="#353535"/>
<path d="M38.9389 61.8613H36.6484V64.1525H38.9389V61.8613Z" fill="#353535"/>
<path d="M34.3578 61.8613H32.0673V64.1525H34.3578V61.8613Z" fill="#353535"/>
<path d="M11.4526 57.2791H9.16211V59.5702H11.4526V57.2791Z" fill="#353535"/>
<path d="M29.7768 61.8613H27.4863V64.1525H29.7768V61.8613Z" fill="#353535"/>
<path d="M43.52 61.8613H41.2294V64.1525H43.52V61.8613Z" fill="#353535"/>
<path d="M11.4526 48.1145H9.16211V50.4057H11.4526V48.1145Z" fill="#353535"/>
<path d="M16.0337 61.8613H13.7432V64.1525H16.0337V61.8613Z" fill="#353535"/>
<path d="M20.6147 61.8613H18.3242V64.1525H20.6147V61.8613Z" fill="#353535"/>
<path d="M11.4526 52.6968H9.16211V54.9879H11.4526V52.6968Z" fill="#353535"/>
<path d="M25.1957 61.8613H22.9052V64.1525H25.1957V61.8613Z" fill="#353535"/>
<path d="M11.4526 61.8613H9.16211V64.1525H11.4526V61.8613Z" fill="#353535"/>
<path d="M64.1346 14.8926H61.8441V17.1837H64.1346V14.8926Z" fill="#353535"/>
<path d="M64.1346 24.0574H61.8441V26.3485H64.1346V24.0574Z" fill="#353535"/>
<path d="M50.3915 10.3101H48.101V12.6012H50.3915V10.3101Z" fill="#353535"/>
<path d="M64.1346 19.4749H61.8441V21.766H64.1346V19.4749Z" fill="#353535"/>
<path d="M64.1346 28.6396H61.8441V30.9308H64.1346V28.6396Z" fill="#353535"/>
<path d="M54.9725 10.3101H52.682V12.6012H54.9725V10.3101Z" fill="#353535"/>
<path d="M59.5536 10.3101H57.2631V12.6012H59.5536V10.3101Z" fill="#353535"/>
<path d="M64.1346 10.3101H61.8441V12.6012H64.1346V10.3101Z" fill="#353535"/>
</svg>
