<svg width="85" height="85" viewBox="0 0 85 85" fill="none" xmlns="http://www.w3.org/2000/svg">
<path fill-rule="evenodd" clip-rule="evenodd" d="M24.8256 44.0236L12.4013 61.341C19.991 65.8824 26.8648 66.7568 35.4872 65.1594C42.885 63.787 49.6637 61.2635 57.2126 60.854L45.1273 44.0239V26.614H47.3806C47.8821 26.614 48.2878 26.2082 48.2878 25.7064V19.9364C48.2878 19.4347 47.8821 19.0289 47.3806 19.0289H22.5765C22.0749 19.0289 21.6692 19.4347 21.6656 19.9364V25.7064C21.6693 26.2082 22.0749 26.614 22.5765 26.614H24.8297L24.8256 44.0236ZM21.6024 0C23.6933 0 25.5815 1.26169 26.3818 3.19488C27.1821 5.12807 26.7395 7.35262 25.2607 8.8321C23.7819 10.3152 21.5544 10.7579 19.6219 9.95363C17.6895 9.15306 16.4283 7.26781 16.4283 5.17236C16.4319 2.31692 18.7442 0 21.6024 0ZM34.9782 13.6869C33.7834 13.6869 32.7028 12.9675 32.2456 11.8608C31.7883 10.7576 32.0427 9.4849 32.8873 8.64C33.7318 7.79147 35.0041 7.54057 36.1068 7.99807C37.2132 8.45554 37.9323 9.5328 37.9323 10.7318C37.9323 12.3625 36.6083 13.6869 34.9782 13.6869ZM85 1.43084V6.92044C84.9963 7.70256 84.3657 8.33712 83.5839 8.33712H81.0687V18.9253H72.7268C71.9265 18.9475 71.2849 19.6041 71.2849 20.4047C71.2849 21.209 71.9266 21.8657 72.7268 21.8841H81.065V29.1224L76.8977 29.1261C76.0974 29.1446 75.4558 29.8013 75.4558 30.6018C75.4558 31.4061 76.0975 32.0628 76.8977 32.0812H81.065V39.3232H72.7268C71.9118 39.3232 71.248 39.9836 71.248 40.7989C71.248 41.618 71.9118 42.2783 72.7268 42.2783H81.065V49.5203H76.8977C76.0974 49.5388 75.4558 50.1955 75.4558 50.9997C75.4558 51.8003 76.0975 52.457 76.8977 52.4754H81.065L81.0687 59.7174H72.7268C71.9265 59.7359 71.2849 60.3926 71.2849 61.1968C71.2849 61.9974 71.9266 62.6541 72.7268 62.6725H81.065V73.2532C81.0171 77.8241 77.2997 81.5061 72.7268 81.5061C68.1576 81.5061 64.4366 77.8242 64.3886 73.2532V8.34128H61.8771C61.0953 8.33759 60.461 7.70672 60.461 6.9246V1.43132C60.461 0.6492 61.0953 0.0183278 61.8771 0.0146444H83.5837C84.3655 0.0183334 84.9963 0.648722 85 1.43084ZM10.6679 63.7493C29.6564 75.2564 43.0804 63.7493 59.2886 63.7493L61.4349 66.7413V73.2491C61.446 77.8312 64.2155 81.9558 68.4492 83.7004C67.5273 84.5563 66.3066 85.0248 65.049 84.999H4.9075C3.03773 85.0285 1.31552 83.9734 0.49312 82.2911C-0.329269 80.6088 -0.111684 78.6019 1.06105 77.1409L10.6679 63.7493Z" fill="#353535"/>
</svg>
