<svg width="83" height="96" viewBox="0 0 83 96" fill="none" xmlns="http://www.w3.org/2000/svg">
<path d="M7.20976 81.9158L9.57988 83.2505L2.54987 95.3028C2.42981 95.5091 2.25704 95.6803 2.04898 95.7992C1.84093 95.9181 1.60494 95.9805 1.36481 95.9801C1.12538 95.9799 0.8901 95.9181 0.681898 95.8008C0.369235 95.6197 0.141175 95.3236 0.0471737 94.9768C-0.0468273 94.63 0.000810028 94.2604 0.179755 93.9482L7.20976 81.9158ZM7.20976 74.2661L6.36616 75.7104C6.06759 76.2313 5.98872 76.8482 6.14674 77.4266C6.30475 78.005 6.68685 78.498 7.20976 78.7981L9.74056 80.2624L9.84099 80.3221L12.2915 81.7166C12.8146 82.0148 13.435 82.097 14.0188 81.9457C14.5914 81.8054 15.0854 81.4477 15.3947 80.9496L16.2383 79.4954L7.19972 74.3458L7.20976 74.2661ZM29.7761 17.7398L30.3686 18.0785L53.7886 31.4556L54.3309 31.7643C54.825 32.047 55.412 32.1234 55.9629 31.9768C56.5138 31.8301 56.9834 31.4725 57.2684 30.9824C57.5534 30.4924 57.6305 29.9101 57.4826 29.3638C57.3348 28.8174 56.9741 28.3516 56.4801 28.069L49.5605 24.0847L49.4802 24.0349L38.9251 18.0586L31.8951 14.0744C31.4016 13.7951 30.817 13.7201 30.268 13.8655C29.719 14.011 29.25 14.3651 28.9626 14.8513C28.8221 15.0932 28.7312 15.3603 28.695 15.6372C28.6588 15.9141 28.6781 16.1954 28.7517 16.4649C28.8213 16.7372 28.9463 16.9925 29.119 17.2152C29.2917 17.4379 29.5085 17.6232 29.756 17.7598L29.7761 17.7398ZM42.9724 3.97433L50.6251 8.35698L56.6508 11.8233L59.7239 13.5863C60.2184 13.8625 60.8017 13.9375 61.3509 13.7955C61.6227 13.7238 61.8776 13.5996 62.101 13.4301C62.3244 13.2606 62.5119 13.049 62.6527 12.8075C62.7936 12.5661 62.8851 12.2994 62.9219 12.0228C62.9587 11.7463 62.9402 11.4652 62.8673 11.1957C62.7945 10.9248 62.6683 10.6709 62.4959 10.4486C62.3235 10.2263 62.1084 10.0402 61.863 9.90087L45.1216 0.278958C44.7979 0.0941425 44.4305 -0.00210265 44.057 6.2376e-05C43.864 -0.0013758 43.6716 0.0220613 43.4846 0.0697861C43.0745 0.179743 42.7065 0.407767 42.427 0.725058C42.1475 1.04235 41.9691 1.43467 41.9143 1.85248C41.8595 2.27028 41.9307 2.69482 42.1191 3.07248C42.3074 3.45013 42.6043 3.76396 42.9724 3.97433ZM47.4616 19.8216L49.661 21.0866L54.0899 13.4668L48.9278 10.4786L45.915 8.74545L41.476 16.3553L46.3167 19.1343L47.4616 19.8216ZM81.7981 48.4782C83.405 68.7679 75.9632 82.0453 59.1013 89.0476C46.5276 83.8282 39.2164 75.1227 36.9366 62.6222C36.9366 62.4429 36.8764 62.2736 36.8563 62.1042C36.1498 57.5971 35.998 53.0216 36.4044 48.4782L47.8231 43.6871L59.1013 38.9658L81.7981 48.4782ZM68.6319 59.9029H62.9979C62.6356 59.9029 62.2882 59.7602 62.0321 59.5062C61.776 59.2521 61.6321 58.9076 61.6321 58.5483V52.9604H56.6106V58.5483C56.6106 58.9076 56.4667 59.2521 56.2106 59.5062C55.9544 59.7602 55.607 59.9029 55.2448 59.9029H49.5605V64.8832H55.1946C55.3809 64.8829 55.5653 64.9204 55.7365 64.9934C55.9077 65.0664 56.062 65.1734 56.1899 65.3077C56.3179 65.4421 56.4167 65.601 56.4804 65.7747C56.5442 65.9483 56.5714 66.1331 56.5604 66.3176V71.9154H61.5818V66.3176C61.5818 65.9583 61.7257 65.6137 61.9819 65.3597C62.238 65.1056 62.5854 64.9629 62.9477 64.9629H68.5817L68.6319 59.9029ZM25.307 77.5232L34.1949 62.3333C33.4105 57.3918 33.2587 52.3718 33.743 47.3925C33.7647 47.1471 33.8539 46.9124 34.0009 46.714C34.1479 46.5155 34.347 46.3608 34.5766 46.2669L46.3569 41.2866L50.5246 39.5336L53.5375 34.3541C53.3409 34.2732 53.1497 34.1801 52.9651 34.0752L51.1573 33.0791L30.1778 21.1165L23.6098 32.4516L30.1778 36.2466C30.4905 36.4277 30.7185 36.7238 30.8125 37.0706C30.9065 37.4174 30.8589 37.787 30.6799 38.0993C30.5583 38.3042 30.3852 38.4743 30.1775 38.593C29.9698 38.7117 29.7346 38.775 29.4949 38.7766C29.254 38.7772 29.0176 38.7117 28.812 38.5873L22.2439 34.8123L20.386 37.9897L26.9641 41.7647C27.2256 41.9134 27.4302 42.1436 27.546 42.4195C27.6618 42.6955 27.6823 43.0017 27.6044 43.2904C27.5265 43.5792 27.3544 43.8342 27.1151 44.0159C26.8757 44.1975 26.5825 44.2956 26.2812 44.2947C26.0419 44.2931 25.807 44.2315 25.5983 44.1154L19.0202 40.3404L17.1723 43.5178L23.7504 47.2929C24.0119 47.4415 24.2164 47.6717 24.3323 47.9476C24.4481 48.2236 24.4686 48.5298 24.3907 48.8185C24.3127 49.1073 24.1407 49.3623 23.9014 49.544C23.662 49.7257 23.3688 49.8237 23.0674 49.8228C22.8297 49.8237 22.5965 49.7581 22.3946 49.6336L15.8065 45.8685L13.9485 49.0459L20.5366 52.811C20.8088 52.9546 21.0239 53.1853 21.1471 53.4656C21.2703 53.7458 21.2943 54.0592 21.2151 54.3547C21.136 54.6502 20.9584 54.9104 20.7112 55.0931C20.4641 55.2758 20.1618 55.3702 19.8537 55.3609C19.599 55.3602 19.3492 55.2914 19.1306 55.1617L12.5827 51.3767L10.7348 54.5641L17.3229 58.3491C17.4779 58.4387 17.6136 58.5577 17.7222 58.6993C17.8308 58.8409 17.9102 59.0023 17.9559 59.1743C18.0016 59.3464 18.0127 59.5257 17.9885 59.702C17.9643 59.8782 17.9054 60.0481 17.815 60.2018C17.6942 60.4073 17.5213 60.578 17.3134 60.6968C17.1055 60.8156 16.8699 60.8785 16.63 60.8791C16.3922 60.88 16.159 60.8144 15.9571 60.6898L9.36898 56.9148L7.52109 60.0922L14.1092 63.8573C14.3715 64.0063 14.5765 64.2374 14.6922 64.5144C14.8078 64.7913 14.8276 65.0985 14.7483 65.3878C14.6691 65.6771 14.4953 65.9322 14.2543 66.1131C14.0132 66.2939 13.7185 66.3904 13.4163 66.3873C13.1755 66.3869 12.9394 66.3214 12.7333 66.198L6.14522 62.4329L4.34754 65.5207C3.89143 66.31 3.7685 67.2462 4.00555 68.125C4.2426 69.0039 4.8204 69.7541 5.61295 70.2121L7.33028 71.2082L18.8093 77.7822L20.5668 78.7782C21.3641 79.2267 22.3069 79.3475 23.193 79.1147C24.0791 78.882 24.838 78.3142 25.307 77.5332V77.5232Z" fill="#353535"/>
</svg>
